<?xml version="1.0" standalone="no"?>
<!DOCTYPE svg PUBLIC "-//W3C//DTD SVG 1.0//EN" "http://www.w3.org/TR/2001/REC-SVG-20010904/DTD/svg10.dtd">
<svg xmlns="http://www.w3.org/2000/svg" xmlns:xlink="http://www.w3.org/1999/xlink" id="body_1" width="32" height="32">

<g transform="matrix(0.5333334 0 0 0.5333334 0 0)">
	<g transform="matrix(0.46875003 0 0 0.46875003 0 0)">
	</g>
    <path transform="matrix(0.46875003 0 0 0.46875003 0 0)"  d="M48.258 1.747L113.5 1.747L113.5 126.247L48.258003 126.247L48.258 1.747z" stroke="none" fill="#4D5680" fill-rule="nonzero" />
	<g transform="matrix(0.058124997 -0.46500012 0.46499997 0.058124997 19.201406 50.00859)">
	</g>
    <path transform="matrix(0.058124997 -0.46500012 0.46499997 0.058124997 19.201406 50.00859)"  d="M101.284996 30.153C 101.284996 24.51804 99.29274 19.708298 95.30822 15.723779C 91.3237 11.73926 86.51396 9.747 80.879 9.747C 75.24404 9.747 70.434296 11.73926 66.449776 15.723779C 62.46526 19.708298 60.473 24.51804 60.473 30.153C 60.473 35.787964 62.46526 40.597702 66.449776 44.582222C 70.434296 48.566742 75.24404 50.559002 80.879 50.559C 86.51396 50.559002 91.3237 48.566742 95.30822 44.582222C 99.29274 40.597702 101.284996 35.787964 101.284996 30.153" stroke="none" fill="#F3F5F9" fill-rule="nonzero" />
	<g transform="matrix(0.46875003 0 0 0.46875003 0 0)">
	</g>
    <path transform="matrix(0.46875003 0 0 0.46875003 0 0)"  d="M85.892 35.919L75.865 35.919C 73.538086 35.919 71.30648 36.84343 69.661194 38.488903C 68.015915 40.134377 67.091736 42.36608 67.091995 44.693L67.091995 44.693L67.091995 45.193C 74.892 52.345116 86.866 52.345116 94.66599 45.193L94.66599 45.193L94.66599 44.693C 94.66599 42.365993 93.74159 40.13429 92.096146 38.488846C 90.4507 36.843403 88.219 35.919 85.89199 35.919L85.89199 35.919L85.892 35.919z" stroke="none" fill="#FFD830" fill-rule="nonzero" />
	<g transform="matrix(0.46875003 0 0 0.46875003 0 0)">
	</g>
    <path transform="matrix(0.46875003 0 0 0.46875003 0 0)"  d="M80.879 29.451C 78.02368 29.451 75.709 27.136314 75.709 24.281L75.709 24.281L75.709 22.244C 75.709 19.388687 78.02368 17.074001 80.879 17.074C 83.734314 17.074001 86.048996 19.388687 86.048996 22.244L86.048996 22.244L86.048996 24.281C 86.048996 27.136314 83.734314 29.451 80.879 29.451z" stroke="none" fill="#FFD9B3" fill-rule="nonzero" />
	<g transform="matrix(0.46875003 0 0 0.46875003 0 0)">
	</g>
    <path transform="matrix(0.46875003 0 0 0.46875003 0 0)"  d="M14.5 1.747L48.258 1.747L48.258 126.247L14.5 126.247L14.5 1.747z" stroke="none" fill="#80A3FF" fill-rule="nonzero" />
	<g transform="matrix(0.46875003 0 0 0.46875003 0 0)">
	</g>
    <path transform="matrix(0.46875003 0 0 0.46875003 0 0)"  d="M36.258 110.247L26.5 110.247C 24.290861 110.247 22.5 112.037865 22.5 114.247C 22.5 116.45614 24.290861 118.247 26.5 118.247L26.5 118.247L36.258 118.247C 38.46714 118.247 40.258 116.45614 40.258 114.247C 40.258 112.037865 38.46714 110.247 36.258 110.247z" stroke="none" fill="#F3F5F9" fill-rule="nonzero" />
	<g transform="matrix(0.46875003 0 0 0.46875003 0 0)">
	</g>
    <path transform="matrix(0.46875003 0 0 0.46875003 0 0)"  d="M36.258 92.558L26.5 92.558C 24.290861 92.558 22.5 94.34886 22.5 96.558C 22.5 98.767136 24.290861 100.558 26.5 100.558L26.5 100.558L36.258 100.558C 38.46714 100.558 40.258 98.767136 40.258 96.558C 40.258 94.34886 38.46714 92.558 36.258 92.558z" stroke="none" fill="#80ECC6" fill-rule="nonzero" />
	<g transform="matrix(0.46875003 0 0 0.46875003 0 0)">
	</g>
    <path transform="matrix(0.46875003 0 0 0.46875003 0 0)"  d="M36.258 74.869L26.5 74.869C 24.290861 74.869 22.5 76.65987 22.5 78.869C 22.5 81.07814 24.290861 82.869 26.5 82.869L26.5 82.869L36.258 82.869C 38.46714 82.869 40.258 81.07814 40.258 78.869C 40.258 76.65987 38.46714 74.869 36.258 74.869z" stroke="none" fill="#FFD830" fill-rule="nonzero" />
	<g transform="matrix(0.46875003 0 0 0.46875003 0 0)">
	</g>
    <path transform="matrix(0.46875003 0 0 0.46875003 0 0)"  d="M105.5 61L56.258 61C 55.2915 61 54.508 60.2165 54.508 59.25C 54.508 58.2835 55.2915 57.5 56.258 57.5L56.258 57.5L105.5 57.5C 106.4665 57.5 107.25 58.2835 107.25 59.25C 107.25 60.2165 106.4665 61 105.5 61z" stroke="none" fill="#80A3FF" fill-rule="nonzero" />
	<g transform="matrix(0.46875003 0 0 0.46875003 0 0)">
	</g>
    <path transform="matrix(0.46875003 0 0 0.46875003 0 0)"  d="M105.5 70.25L56.258 70.25C 55.2915 70.25 54.508 69.4665 54.508 68.5C 54.508 67.5335 55.2915 66.75 56.258 66.75L56.258 66.75L105.5 66.75C 106.4665 66.75 107.25 67.5335 107.25 68.5C 107.25 69.4665 106.4665 70.25 105.5 70.25z" stroke="none" fill="#80A3FF" fill-rule="nonzero" />
	<g transform="matrix(0.46875003 0 0 0.46875003 0 0)">
	</g>
    <path transform="matrix(0.46875003 0 0 0.46875003 0 0)"  d="M105.5 79.5L56.258 79.5C 55.2915 79.5 54.508 78.7165 54.508 77.75C 54.508 76.7835 55.2915 76 56.258 76L56.258 76L105.5 76C 106.4665 76 107.25 76.7835 107.25 77.75C 107.25 78.7165 106.4665 79.5 105.5 79.5z" stroke="none" fill="#80A3FF" fill-rule="nonzero" />
	<g transform="matrix(0.46875003 0 0 0.46875003 0 0)">
	</g>
    <path transform="matrix(0.46875003 0 0 0.46875003 0 0)"  d="M105.5 110.873L70.437 110.873C 69.4705 110.873 68.687 110.0895 68.687 109.123C 68.687 108.1565 69.4705 107.373 70.437 107.373L70.437 107.373L105.5 107.373C 106.4665 107.373 107.25 108.1565 107.25 109.123C 107.25 110.0895 106.4665 110.873 105.5 110.873z" stroke="none" fill="#80A3FF" fill-rule="nonzero" />
	<g transform="matrix(0.46875003 0 0 0.46875003 0 0)">
	</g>
    <path transform="matrix(0.46875003 0 0 0.46875003 0 0)"  d="M105.5 120L77.094 120C 76.1275 120 75.344 119.2165 75.344 118.25C 75.344 117.2835 76.1275 116.5 77.094 116.5L77.094 116.5L105.5 116.5C 106.4665 116.5 107.25 117.2835 107.25 118.25C 107.25 119.2165 106.4665 120 105.5 120z" stroke="none" fill="#80A3FF" fill-rule="nonzero" />
	<g transform="matrix(0.46875003 0 0 0.46875003 0 0)">
	</g>
    <path transform="matrix(0.46875003 0 0 0.46875003 0 0)"  d="M92.937 88.75L68.81999 88.75C 67.85349 88.75 67.06999 87.9665 67.06999 87C 67.06999 86.0335 67.85349 85.25 68.81999 85.25L68.81999 85.25L92.937 85.25C 93.56221 85.25 94.13993 85.58355 94.45254 86.125C 94.76515 86.66645 94.76515 87.33355 94.45254 87.875C 94.13993 88.41645 93.56221 88.75 92.937 88.75z" stroke="none" fill="#80A3FF" fill-rule="nonzero" />
	<g transform="matrix(0.46875003 0 0 0.46875003 0 0)">
	</g>
    <path transform="matrix(0.46875003 0 0 0.46875003 0 0)"  d="M40.258 11.5L22.5 11.5C 21.5335 11.5 20.75 10.716498 20.75 9.75C 20.75 8.783502 21.5335 8 22.5 8L22.5 8L40.258 8C 41.2245 8 42.008 8.783502 42.008 9.75C 42.008 10.716498 41.2245 11.5 40.258 11.5z" stroke="none" fill="#4D5680" fill-rule="nonzero" />
	<g transform="matrix(0.46875003 0 0 0.46875003 0 0)">
	</g>
    <path transform="matrix(0.46875003 0 0 0.46875003 0 0)"  d="M40.258 19.938L22.5 19.938C 21.5335 19.938 20.75 19.154497 20.75 18.188C 20.75 17.2215 21.5335 16.438 22.5 16.438L22.5 16.438L40.258 16.438C 41.2245 16.438 42.008 17.221502 42.008 18.188C 42.008 19.1545 41.2245 19.938 40.258 19.938z" stroke="none" fill="#4D5680" fill-rule="nonzero" />
	<g transform="matrix(0.46875003 0 0 0.46875003 0 0)">
	</g>
    <path transform="matrix(0.46875003 0 0 0.46875003 0 0)"  d="M40.258 28.378L22.5 28.378C 21.5335 28.378 20.75 27.594498 20.75 26.628C 20.75 25.6615 21.5335 24.878 22.5 24.878L22.5 24.878L40.258 24.878C 41.2245 24.878 42.008 25.661503 42.008 26.628C 42.008 27.5945 41.2245 28.378 40.258 28.378z" stroke="none" fill="#4D5680" fill-rule="nonzero" />
	<g transform="matrix(0.46875003 0 0 0.46875003 0 0)">
	</g>
    <path transform="matrix(0.46875003 0 0 0.46875003 0 0)"  d="M40.258 36.818L22.5 36.818C 21.5335 36.818 20.75 36.0345 20.75 35.068C 20.75 34.1015 21.5335 33.318 22.5 33.318L22.5 33.318L40.258 33.318C 41.2245 33.318 42.008 34.1015 42.008 35.068C 42.008 36.0345 41.2245 36.818 40.258 36.818z" stroke="none" fill="#4D5680" fill-rule="nonzero" />
</g>
</svg>